<svg width="28" height="28" viewBox="0 0 28 28" fill="currentColor" xmlns="http://www.w3.org/2000/svg">
    <path d="M15.4144 14.0001L20.7074 8.70713C21.0984 8.31613 21.0984 7.68413 20.7074 7.29313C20.3154 6.90213 19.6844 6.90213 19.2934 7.29313L14.0004 12.5861L8.70739 7.29313C8.31539 6.90213 7.68439 6.90213 7.29339 7.29313C6.90139 7.68413 6.90139 8.31613 7.29339 8.70713L12.5864 14.0001L7.29339 19.2931C6.90139 19.6841 6.90139 20.3161 7.29339 20.7071C7.48739 20.9021 7.74339 21.0001 8.00039 21.0001C8.25639 21.0001 8.51239 20.9021 8.70739 20.7071L14.0004 15.4141L19.2934 20.7071C19.4874 20.9021 19.7434 21.0001 20.0004 21.0001C20.2564 21.0001 20.5124 20.9021 20.7074 20.7071C21.0984 20.3161 21.0984 19.6841 20.7074 19.2931L15.4144 14.0001Z"/>
</svg>
