<svg width="28" height="28" viewBox="0 0 28 28" fill="currentColor" xmlns="http://www.w3.org/2000/svg">
    <path d="M5 20L8 14V9.998C8 6.691 10.7751 4 14 4C17.2279 4 20 6.691 20 9.998V14L23 20H5ZM14 24C12.8996 24 12 23.1008 12 22C12 21.998 15.999 22.002 15.999 22.004C16 23.1048 15.1034 24 14 24ZM22 14V10C22 5.59 18.3013 2 13.9998 2C9.69829 2 6 5.59 6 10V14L3.26111 19.004C2.91102 19.63 2.91297 20.376 3.26696 20.999C3.61998 21.623 4.29592 21.996 5 21.996L10 22C9.99902 24.21 11.8486 26 13.9998 26C16.1511 26 18 24.206 18 22C18 21.9987 19.6667 21.9987 23 22C23.7021 22 24.3826 21.623 24.7336 20.999C25.0867 20.376 25.0886 19.63 24.7405 19.004L22 14Z"/>
</svg>
