<svg width="28" height="28" viewBox="0 0 28 28" fill="currentColor" xmlns="http://www.w3.org/2000/svg">
    <path d="M15.238 15.238L10.904 17.096L12.761 12.761L17.096 10.904L15.238 15.238ZM18.031 8.327L11.238 11.238L8.327 18.031H8.326C8.124 18.504 8.228 19.044 8.592 19.407C8.832 19.648 9.15 19.775 9.474 19.775C9.64 19.775 9.808 19.741 9.968 19.673L16.761 16.761L19.673 9.968C19.875 9.496 19.771 8.955 19.407 8.592C19.043 8.229 18.503 8.123 18.031 8.327ZM14 24C8.486 24 4 19.514 4 14C4 8.486 8.486 4 14 4C19.514 4 24 8.486 24 14C24 19.514 19.514 24 14 24ZM2 14C2 20.616 7.383 26 14 26C20.616 26 26 20.616 26 14C26 7.383 20.616 2 14 2C7.383 2 2 7.383 2 14Z"/>
</svg>
