<svg width="28" height="28" viewBox="0 0 28 28" fill="currentColor" xmlns="http://www.w3.org/2000/svg">
    <path d="M21.075 21.0747C17.1741 24.9745 10.8259 24.9745 6.92496 21.0747C3.02501 17.1739 3.02501 10.826 6.92496 6.92515C8.87594 4.97525 11.4382 4.0008 14.0005 4.0008C16.5618 4.0008 19.1251 4.97525 21.075 6.92515C24.975 10.826 24.975 17.1739 21.075 21.0747ZM22.4897 5.5105C17.8094 0.830334 10.1926 0.829334 5.51026 5.5105C0.829915 10.1917 0.829915 17.8082 5.51026 22.4894C7.85143 24.8294 10.926 26 14.0005 26C17.074 26 20.1496 24.8294 22.4897 22.4894C27.1701 17.8082 27.1701 10.1917 22.4897 5.5105ZM17.998 13H14.998V9.99857C14.998 9.44532 14.55 8.99811 13.998 8.99811C13.445 8.99811 12.998 9.44532 12.998 9.99857V13H9.998C9.445 13 8.998 13.4472 8.998 14.0004C8.998 14.5527 9.445 15.0009 9.998 15.0009H12.998V18.0023C12.998 18.5545 13.445 19.0027 13.998 19.0027C14.55 19.0027 14.998 18.5545 14.998 18.0023V15.0009H17.998C18.55 15.0009 18.998 14.5527 18.998 14.0004C18.998 13.4472 18.55 13 17.998 13Z"/>
</svg>
