<svg width="14" height="14" viewBox="0 0 14 14" fill="currentColor" xmlns="http://www.w3.org/2000/svg">
    <path d="M4.96847 10.0795L5.86547 7.225C5.93747 6.997 5.89547 6.74875 5.75522 6.556C5.61347 6.364 5.38997 6.25 5.14997 6.25H4.14047L6.60422 2.5H9.62297L8.10122 5.1235C7.96622 5.356 7.96622 5.64175 8.10047 5.87425C8.23397 6.10675 8.48297 6.25 8.74997 6.25H9.64847L4.96847 10.0795ZM12.4557 5.248C12.35 4.9495 12.0672 4.75 11.75 4.75H10.052L11.5752 2.1265C11.7087 1.894 11.7087 1.60825 11.576 1.37575C11.4417 1.14325 11.1935 1 10.925 1H6.20072C5.94722 1 5.71172 1.12675 5.57297 1.33825L2.12297 6.58825C1.97222 6.8185 1.95872 7.11325 2.08997 7.35625C2.22122 7.5985 2.47472 7.75 2.74997 7.75H4.12847L2.78447 12.025C2.68472 12.3415 2.80472 12.6858 3.07922 12.871C3.20672 12.9573 3.35372 13 3.49997 13C3.67022 13 3.83747 12.943 3.97472 12.8305L12.2247 6.0805C12.47 5.8795 12.563 5.5465 12.4557 5.248Z"/>
</svg>
