<svg width="14" height="14" viewBox="0 0 14 14" fill="currentColor" xmlns="http://www.w3.org/2000/svg">
    <path d="M1.7476 5.50011C2.16151 5.50011 2.49669 5.83539 2.49669 6.24961V11.4991C2.49669 11.9141 2.16151 12.2501 1.7476 12.2501C1.33518 12.2501 1 11.9141 1 11.4991V6.24961C1 5.83539 1.33518 5.50011 1.7476 5.50011ZM6.78078 2.49464C6.79878 2.50439 6.80778 2.50814 6.81228 2.52689C6.82578 2.58014 6.85502 2.80364 6.70355 3.45839L5.97095 7.00664H11.5153V8.10014L9.94738 11.2059C9.84015 11.4159 9.79141 11.4826 9.77867 11.4954C9.77792 11.4954 9.72543 11.5186 9.55446 11.5186H6.29713C5.38532 11.5186 4.74945 10.8489 4.74945 9.89039V5.92889L6.39386 2.95739C6.56333 2.61764 6.71405 2.50964 6.73204 2.49839C6.74554 2.49088 6.76504 2.48789 6.78078 2.49464ZM12.1485 5.49965H7.80545L8.16107 3.77433C8.32354 3.07417 8.66119 1.61618 7.24619 1.09199C6.5926 0.849372 5.67397 1.03733 5.0638 2.25569L3.24976 5.53559V9.8766C3.24976 11.6573 4.5577 13 6.29238 13H9.54462C10.6055 13 10.9664 12.4661 11.2718 11.8685L12.9998 8.44632V6.33161C12.9998 5.91825 12.7362 5.49965 12.1485 5.49965Z"/>
</svg>
