<svg width="18" height="18" viewBox="0 0 18 18" fill="currentColor" xmlns="http://www.w3.org/2000/svg">
    <path d="M14.6565 3.3433C17.7812 6.46685 17.7812 11.5332 14.6565 14.6568C11.5332 17.7812 6.46685 17.7812 3.34355 14.6568C0.218858 11.5332 0.218858 6.46685 3.3433 3.34355C6.46685 0.218858 11.5332 0.218858 14.6565 3.3433ZM4.75751 4.75777C2.41421 7.10021 2.41421 10.8998 4.75777 13.2426C7.10021 15.5859 10.8998 15.5859 13.2423 13.2426C15.5859 10.8998 15.5859 7.10021 13.2423 4.75751C10.8998 2.41421 7.10021 2.41421 4.75751 4.75777ZM8.99983 5.74983C9.55212 5.74983 9.99983 6.19755 9.99983 6.74983L9.999 7.999L11.2498 7.99983C11.7627 7.99983 12.1853 8.38587 12.2431 8.88321L12.2498 8.99983C12.2498 9.55212 11.8021 9.99983 11.2498 9.99983L9.999 9.999L9.99983 11.2498C9.99983 11.7627 9.61379 12.1853 9.11645 12.2431L8.99983 12.2498C8.44755 12.2498 7.99983 11.8021 7.99983 11.2498L7.999 9.999L6.74983 9.99983C6.237 9.99983 5.81432 9.61379 5.75656 9.11645L5.74983 8.99983C5.74983 8.44755 6.19755 7.99983 6.74983 7.99983L7.999 7.999L7.99983 6.74983C7.99983 6.237 8.38587 5.81432 8.88321 5.75656L8.99983 5.74983Z"/>
</svg>
