<svg width="28" height="28" viewBox="0 0 28 28" fill="currentColor" xmlns="http://www.w3.org/2000/svg">
    <path d="M24 22C24 22.551 23.551 23 23 23H5C4.449 23 4 22.551 4 22V17H10.126C10.572 18.723 12.14 20 14 20C15.86 20 17.428 18.723 17.874 17H24V22ZM5.847 5H22.153L23.819 15H16V16C16 17.103 15.103 18 14 18C12.897 18 12 17.103 12 16V15H4.181L5.847 5ZM23.847 3H4.153L2.014 15.835V15.934C2.012 15.957 2 15.977 2 16C2 16.023 2.012 16.042 2.013 16.065L2 22C2 23.654 3.346 25 5 25H23C24.654 25 26 23.654 26 22V16L23.847 3Z"/>
</svg>
